<?xml version="1.0" standalone="no"?>
<!DOCTYPE svg PUBLIC "-//W3C//DTD SVG 1.1//EN" "http://www.w3.org/Graphics/SVG/1.1/DTD/svg11.dtd">
<svg width="770" height="1122" xmlns="http://www.w3.org/2000/svg">
 <defs>
  <clipPath clipPathUnits="userSpaceOnUse" id="clipPath42">
   <path d="m0,841.89l595.276,0l0,-841.89l-595.276,0l0,841.89z" id="path40"/>
  </clipPath>
  <clipPath clipPathUnits="userSpaceOnUse" id="clipPath70">
   <path d="m0,841.89l595.276,0l0,-841.89l-595.276,0l0,841.89z" id="path68"/>
  </clipPath>
  <linearGradient x1="0.000001" y1="0.501748" x2="0.999999" y2="0.501748" spreadMethod="pad" id="linearGradient32">
   <stop stop-color="#ed1c24" offset="0" id="stop24"/>
   <stop stop-color="#b01419" offset="0.33" id="stop26"/>
   <stop stop-color="#ed1c24" offset="0.7" id="stop28"/>
   <stop stop-color="#b01419" offset="1" id="stop30"/>
  </linearGradient>
 </defs>
 <g>
  <title>background</title>
  <rect fill="none" id="canvas_background" height="1124" width="772" y="-1" x="-1"/>
 </g>
 <g>
  <title>Layer 1</title>
  <g id="g10" transform="matrix(1.3333333,0,0,-1.3333333,0,1122.52) ">
   <g id="g12">
    <g id="g14">
     <g id="g20">
      <g id="g22">
       <path fill="url(#linearGradient32)" d="m335.88,553.956c-23.849,5.23 -83.47,20.921 -83.47,20.921l0,0c-121.334,28.45 -174.47,-17.574 -174.47,-17.574l0,0l0,-322.302c82.424,54.252 201.666,11.855 201.666,11.855l0,0c51.463,-14.644 89.536,-19.247 89.536,-19.247l0,0c95.812,-18.408 158.401,39.329 158.401,39.329l0,0l0,320.333c-85.943,-69.192 -191.663,-33.315 -191.663,-33.315" id="path34"/>
      </g>
     </g>
    </g>
   </g>
   <g id="g36">
    <g id="g38" clip-path="url(#clipPath42)">
     <g id="g44">
      <path fill="#f3661f" fill-rule="evenodd" d="m103.425301,571.29248c3.246,1.294 6.813,2.582 10.706,3.814l0,-322.68c-3.597,-1.204 -7.167,-2.543 -10.706,-4.004l0,322.87z" id="path46"/>
     </g>
     <g id="g48">
      <path fill="#f3661f" fill-rule="evenodd" d="m116.610397,575.86908c7.453,2.232 16.03,4.237 25.763,5.719l0,-322.164c-8.622,-1.463 -17.252,-3.494 -25.763,-6.2l0,322.645z" id="path50"/>
     </g>
     <g id="g52">
      <path fill="#f3661f" fill-rule="evenodd" d="m499.262695,568.412598c1.976,1.073 4.356,2.434 6.689,3.794l0,-320.652c-2.088,-1.25 -4.319,-2.53 -6.689,-3.821l0,320.679z" id="path54"/>
     </g>
     <g id="g56">
      <path fill="#d91920" fill-rule="evenodd" d="m59.313499,561.249023l11.857,0c4.242,0 7.711,-3.47 7.711,-7.711l0,-317.073l-27.278,0l0,317.073c0,4.241 3.469,7.711 7.71,7.711" id="path58"/>
     </g>
    </g>
   </g>
   <text font-weight="bold" font-size="51.372356px" font-family="Arial" fill="#0f0d23" fill-rule="nonzero" transform="matrix(0.99993272,-0.01159962,-0.01159962,-0.99993272,196.1484,407.606) " id="text62">
    <tspan x="-88" y="0" id="tspan60">Good Shipping</tspan>
   </text>
   <g id="g64">
    <g id="g66" clip-path="url(#clipPath70)">
     <g id="g72">
      <path fill="#0f0d23" fill-rule="evenodd" d="m219.140106,396.357391l3.088,-9.767l9.644,3.453l-5.71,-8.503l8.711,-5.388l-10.208,-0.837l1.22,-10.171l-7.02,7.459l-7.19,-7.294l1.454,10.139l-10.186,1.074l8.834,5.184l-5.512,8.633l9.562,-3.674l3.313,9.692z" id="path74"/>
     </g>
     <g id="g76">
      <path fill="#0f0d23" fill-rule="evenodd" d="m262.290985,395.857391l3.088,-9.767l9.644,3.454l-5.711,-8.504l8.712,-5.388l-10.209,-0.837l1.221,-10.171l-7.02,7.46l-7.191,-7.295l1.455,10.14l-10.187,1.073l8.835,5.184l-5.512,8.633l9.562,-3.674l3.313,9.692z" id="path78"/>
     </g>
     <g id="g80">
      <path fill="#0f0d23" fill-rule="evenodd" d="m305.441406,395.358398l3.088,-9.767l9.644,3.453l-5.71,-8.504l8.712,-5.388l-10.209,-0.837l1.22,-10.17l-7.019,7.459l-7.192,-7.295l1.456,10.14l-10.187,1.073l8.835,5.184l-5.513,8.633l9.562,-3.674l3.313,9.693z" id="path82"/>
     </g>
     <g id="g84">
      <path fill="#0f0d23" fill-rule="evenodd" d="m348.592804,394.858398l3.088,-9.767l9.643,3.453l-5.71,-8.504l8.712,-5.387l-10.209,-0.838l1.22,-10.17l-7.019,7.459l-7.191,-7.295l1.455,10.14l-10.186,1.073l8.834,5.185l-5.512,8.633l9.562,-3.674l3.313,9.692z" id="path86"/>
     </g>
     <g id="g88">
      <path fill="#231f20" fill-rule="evenodd" d="m465.251007,518.973083c1.084,-0.189 1.809,-1.221 1.62,-2.305c-0.189,-1.084 -1.222,-1.809 -2.305,-1.619c-1.084,0.189 -1.809,1.22 -1.62,2.304c0.19,1.084 1.222,1.809 2.305,1.62" id="path90"/>
     </g>
     <g id="g92">
      <path fill="#231f20" fill-rule="evenodd" d="m456.368195,513.648926l-0.041,-5.331c0,0 5,1.769 6.11,-0.366c0,0 1.759,-3.452 -0.483,-9.5c-0.671,-1.808 -1.738,-4.89 -3.905,-5.346c-1.82,-0.383 -2.839,0.399 -3.243,2.131c-0.085,0.366 -0.128,0.776 -0.092,1.216c0,0 -4.992,0.492 -6.339,3.915c0,0 -2.8,-7.992 3.133,-12.378c0,0 0.316,1.015 1.085,1.541c1.234,0.845 2.273,-0.307 3.355,-0.808c0.849,-0.392 2.007,-0.823 3.483,-1.145c1.347,-0.294 2.549,-0.223 3.752,-0.952c0.651,-0.394 1.356,-0.995 1.495,-1.8c0,0 1.035,1.299 2.296,2.011c1.19,0.67 3.083,0.711 4.388,1.063c1.15,0.311 2.434,0.747 3.423,1.323c0.907,0.529 1.401,1.301 2.476,0.228c0.325,-0.324 0.585,-0.848 0.624,-1.69c0,0 5.03,3.443 3.587,12.501c0,0 -2.346,-3.534 -6.286,-3.819c0,0 -0.409,-2.652 -2.099,-3.374c-2.45,-1.045 -3.676,1.507 -4.528,3.215c-0.676,1.357 -1.378,3.112 -1.708,5.02c-0.364,2.114 -0.743,7.856 2.371,8.011l3.923,-0.738l0.023,5.074l-5.15,0.521c0,0 1.237,1.68 0.966,3.746c-0.276,2.1 -1.513,3.03 -3.524,3.366c-1.148,0.193 -2.53,0.059 -3.74,-1.074c0,0 -2.481,-2.317 -0.567,-4.943c0.583,-0.96 -0.028,-1.241 -0.856,-1.431c-0.707,-0.162 -1.93,-0.307 -3.929,-0.187" id="path94"/>
     </g>
     <g id="g96">
      <path fill="#f3661f" fill-rule="evenodd" d="m506.90329,572.795898c6.962,4.219 13.862,9.019 20.64,14.475l0,-320.332c0,0 -7.272,-6.704 -20.64,-14.813l0,320.67z" id="path98"/>
     </g>
    </g>
   </g>
  </g>
 </g>
</svg>