<?xml version="1.0" standalone="no"?>
<!DOCTYPE svg PUBLIC "-//W3C//DTD SVG 1.1//EN" "http://www.w3.org/Graphics/SVG/1.1/DTD/svg11.dtd">
<svg viewBox="0 0 1024 1024" version="1.1" xmlns="http://www.w3.org/2000/svg" xmlns:xlink="http://www.w3.org/1999/xlink">
<g fill="#ffffff">
  <path d="M798.421333 726.613333L541.312 969.706667a42.666667 42.666667 0 0 1-58.624 0L225.578667 726.613333a397.184 397.184 0 0 1 0-566.826666c158.250667-156.16 414.592-156.16 572.842666 0a397.184 397.184 0 0 1 0 566.826666z m-59.946666-506.090666c-125.013333-123.370667-327.936-123.370667-452.949334 0-124.693333 123.050667-124.693333 322.304-0.64 444.714666L512 880l226.773333-214.421333a311.850667 311.850667 0 0 0-0.298666-445.056zM512 618.666667a170.666667 170.666667 0 1 1 0-341.333334 170.666667 170.666667 0 0 1 0 341.333334z m0-85.333334a85.333333 85.333333 0 1 0 0-170.666666 85.333333 85.333333 0 0 0 0 170.666666z"></path>
</g>
</svg>