<?xml version="1.0" standalone="no"?>
<!DOCTYPE svg PUBLIC "-//W3C//DTD SVG 1.1//EN" "http://www.w3.org/Graphics/SVG/1.1/DTD/svg11.dtd">
<svg viewBox="0 0 1024 1024" version="1.1" xmlns="http://www.w3.org/2000/svg" xmlns:xlink="http://www.w3.org/1999/xlink">
<g fill="#132831">
  <path d="M118.293333 271.850667L170.666667 240.405333V149.248A106.709333 106.709333 0 0 1 277.248 42.666667h469.504A106.496 106.496 0 0 1 853.333333 149.248v91.157333l52.373334 31.445334C948.949333 297.792 981.333333 354.901333 981.333333 405.184v469.546667A106.666667 106.666667 0 0 1 874.517333 981.333333H149.482667C90.56 981.333333 42.666667 933.504 42.666667 874.752V404.096c0.469333-49.92 32.789333-106.56 75.626666-132.266667zM170.666667 339.925333l-8.469334 5.077334c-17.408 10.453333-34.133333 39.872-34.197333 60.010666v21.802667c0 20.181333 16.746667 49.706667 34.197333 60.16l8.469334 5.098667v-152.149334z m682.666666 0v152.149334l8.469334-5.077334c17.450667-10.474667 34.197333-40 34.197333-60.181333v-21.802667c-0.064-20.138667-16.789333-49.557333-34.197333-60.010666L853.333333 339.925333z m42.666667 226.069334L533.973333 783.253333a42.666667 42.666667 0 0 1-43.946666 0L128 565.973333v308.757334c0 11.584 9.664 21.248 21.482667 21.248h725.034666A21.333333 21.333333 0 0 0 896 874.752V565.973333zM768 149.248A21.162667 21.162667 0 0 0 746.752 128H277.248c-11.626667 0-21.248 9.6-21.248 21.248v394.026667l256 153.642666 256-153.642666V149.248zM384 341.333333a42.666667 42.666667 0 1 1 0-85.333333h256a42.666667 42.666667 0 1 1 0 85.333333H384z m0 128a42.666667 42.666667 0 1 1 0-85.333333h256a42.666667 42.666667 0 1 1 0 85.333333H384z"></path>
</g>
</svg>